# xmcd
#
# Track frame offsets:
#	150
#	18150
#	34575
#
# Disc length: 624 seconds
#
# Revision: 0
# Processed by: cddbd v1.4PL0 Copyright (c) Steve Scherf et al.
# Submitted via: dBpowerAMP V4.0
#
DISCID=15026e03
DTITLE=KD Lang - If I Were You [CD Single)
DYEAR=1995
DGENRE=blues
TTITLE0=If I Were You
TTITLE1=Get Some
TTITLE2=Whats New Pussycat (Live)
EXTD=
EXTT0=
EXTT1=
EXTT2=
PLAYORDER=
